<svg width="122" height="122" viewBox="0 0 122 122" fill="none" xmlns="http://www.w3.org/2000/svg">
<g clip-path="url(#clip0_136_2215)">
<path d="M116.603 60.0407C113.98 56.9745 110.445 54.1594 106.089 51.6744L106.349 50.4777L106.246 50.0417L106.204 50.0307C106.279 49.2592 106.338 48.4728 106.38 47.661C106.495 45.2549 106.495 42.7789 106.495 40.2826C106.495 36.6539 105.04 33.0782 102.287 29.9424C98.6201 25.7749 92.9735 22.4137 85.507 19.9506C78.2275 17.5735 69.7549 16.3144 61 16.3125C49.2982 16.3216 38.2341 18.5595 29.8495 22.6117C25.5609 24.6919 22.1521 27.1586 19.7073 29.9536C16.9582 33.0875 15.5069 36.6574 15.5085 40.4771C15.5085 43.5561 15.5085 46.7322 15.7635 49.7946L15.6444 49.8129L15.932 51.6677C11.5555 54.164 8.00363 56.9881 5.37372 60.0707C1.85669 64.1882 -0.00166678 68.843 1.18868e-06 73.5331C-0.00166678 78.0652 1.75208 82.5664 5.04918 86.5893L5.03465 86.6002L5.39374 87.0237L5.3954 87.0256C10.254 92.694 17.7901 97.2724 27.8003 100.643C37.6437 103.941 49.1238 105.686 61.0017 105.688C76.8529 105.677 91.8205 102.585 103.149 96.9771C108.859 94.1402 113.384 90.7918 116.604 87.0237C120.129 82.9038 121.996 78.2487 122 73.5222C122.002 68.8323 120.136 64.1696 116.603 60.0407ZM49.3094 30.0666L61.2952 23.6027L72.691 29.7478V34.2691L60.705 40.733L49.3094 34.5899V30.0666ZM35.9214 64.5435C31.8105 62.8464 28.345 60.6931 25.9055 58.316C25.2383 57.6672 24.619 56.9671 24.0674 56.2287L24.1517 56.1369L23.501 55.424C22.6779 54.1632 22.1192 52.851 21.8387 51.5498C21.6591 50.4372 21.529 49.0976 21.452 47.5671C24.8058 52.0316 31.1891 55.7685 39.6545 58.195V70.5751C39.6545 73.1371 41.74 75.2228 44.3024 75.2228C46.8663 75.2228 48.9501 73.1371 48.9501 70.5751V65.0091C48.9501 63.968 49.797 63.1214 50.8378 63.1214C51.8788 63.1214 52.7219 63.9683 52.7219 65.0091C52.7219 67.192 54.4997 68.966 56.6823 68.966C58.865 68.966 60.6392 67.192 60.6392 65.0091V61.0212L61.0019 61.0248C78.9002 61.0248 94.4818 55.6697 100.546 47.5729C100.512 48.251 100.467 48.9089 100.412 49.5372C100.357 50.1237 100.292 50.6791 100.222 51.1666C99.8296 52.7922 99.1221 54.3665 98.0956 55.8677L97.8576 56.1607L97.8814 56.1846C97.4323 56.8115 96.9631 57.3886 96.4501 57.946C93.3674 61.274 88.6061 64.0378 82.6791 65.9439C76.4845 67.9416 68.9979 68.9972 61.0017 68.9972H60.5913V73.1576H61.0017C72.3167 73.1538 82.3693 71.1891 90.0739 67.4779C93.9226 65.6179 97.0951 63.3616 99.4977 60.7722C99.8329 60.4129 100.152 60.0409 100.456 59.6651C100.539 60.0536 100.592 60.5797 100.619 61.2523C100.663 62.2183 100.663 63.5251 100.663 65.3027C100.661 67.5091 99.7321 69.6975 97.8976 71.8068C95.0385 75.0948 89.9931 78.0381 83.6903 80.0925C76.9973 82.2826 69.1568 83.4428 60.9535 83.4428C50.2816 83.4428 39.8702 81.3609 32.387 77.7302C28.8518 76.0165 25.9872 73.9675 24.1052 71.8068C22.2705 69.6975 21.3395 67.5091 21.3359 65.3027C21.3302 62.165 21.356 60.5797 21.532 59.7276C21.9867 60.2628 22.4795 60.7886 23.0037 61.3019C25.8721 64.0819 29.682 66.4683 34.3354 68.3889L34.7131 68.5466L36.3002 64.7017L35.9214 64.5435ZM112.169 83.2409C108.154 87.9694 101.114 92.1846 92.3468 95.1169C83.0899 98.2198 72.2493 99.8601 60.9707 99.8601C45.9976 99.8601 31.9607 96.9829 21.4427 91.7557C16.5036 89.3071 12.4881 86.3639 9.83244 83.2409C7.17846 80.1216 5.8317 76.8559 5.82979 73.5331C5.8317 70.2212 7.17322 66.9608 9.81576 63.847C11.8521 61.4499 14.6102 59.2084 18.0245 57.1723C17.8687 57.4985 17.7386 57.8318 17.6362 58.1711C17.4036 58.9575 17.2825 59.7967 17.2239 61.0651C17.1763 62.1645 17.1763 63.5082 17.1763 65.3022C17.1744 68.5113 18.4866 71.7076 20.9716 74.5427C24.3824 78.4336 29.9319 81.7197 37.0134 84.0454C44.1244 86.3712 52.4173 87.601 61.0017 87.6027C72.458 87.5972 83.2617 85.42 91.423 81.4707C95.5117 79.4875 98.7445 77.1545 101.03 74.543C103.513 71.706 104.826 68.5097 104.824 65.3024L104.822 64.5566C104.82 61.8497 104.818 60.2168 104.516 58.7633C104.401 58.2026 104.217 57.6691 103.977 57.1761C107.384 59.2069 110.133 61.4389 112.166 63.8253C114.821 66.9482 116.168 70.2141 116.17 73.5334C116.168 76.8557 114.822 80.1216 112.169 83.2409Z" fill="#39485B"/>
</g>
<defs>
<clipPath id="clip0_136_2215">
<rect width="122" height="122" fill="white"/>
</clipPath>
</defs>
</svg>
