<svg width="122" height="122" viewBox="0 0 122 122" fill="none" xmlns="http://www.w3.org/2000/svg">
<path d="M39.291 21.3955C42.5971 21.3955 45.278 18.7165 45.278 15.4066V5.98515C45.278 2.68114 42.5971 0 39.291 0C35.9848 0 33.3018 2.68114 33.3018 5.98515V15.4063C33.3018 18.7165 35.9848 21.3955 39.291 21.3955Z" fill="#39485B"/>
<path d="M83.4423 21.3955C86.7466 21.3955 89.4294 18.7165 89.4294 15.4066V5.98515C89.4294 2.68114 86.7463 0 83.4423 0C80.1362 0 77.4531 2.68114 77.4531 5.98515V15.4063C77.4529 18.7165 80.1362 21.3955 83.4423 21.3955Z" fill="#39485B"/>
<path d="M104.188 8.53223H94.6892V15.4064C94.6892 21.6112 89.645 26.6576 83.4421 26.6576C77.2392 26.6576 72.1931 21.6112 72.1931 15.4064V8.53223H50.5378V15.4064C50.5378 21.6112 45.4915 26.6576 39.291 26.6576C33.088 26.6576 28.0417 21.6112 28.0417 15.4064V8.53223H17.8113C8.52384 8.53223 0.994629 16.0617 0.994629 25.3489V105.183C0.994629 114.471 8.52384 122 17.8113 122H104.188C113.476 122 121.005 114.471 121.005 105.183V25.3489C121.005 16.0617 113.476 8.53223 104.188 8.53223ZM112.822 105.183C112.822 109.944 108.949 113.818 104.188 113.818H17.8113C13.0507 113.818 9.17721 109.944 9.17721 105.183V35.9767H112.822V105.183Z" fill="#39485B"/>
<path d="M56.8342 91.1455H41.6816V106.298H56.8342V91.1455Z" fill="#39485B"/>
<path d="M56.8342 67.6624H41.6816V82.8149H56.8342V67.6624Z" fill="#39485B"/>
<path d="M33.3511 91.1455H18.2007V106.298H33.3511V91.1455Z" fill="#39485B"/>
<path d="M33.3511 67.6624H18.2007V82.8149H33.3511V67.6624Z" fill="#39485B"/>
<path d="M103.799 44.1814H88.6479V59.3318H103.799V44.1814Z" fill="#39485B"/>
<path d="M80.3176 44.1814H65.165V59.3318H80.3176V44.1814Z" fill="#39485B"/>
<path d="M83.4081 69.8679L78.9012 66.3638L70.6946 76.9199L65.8222 73.0223L62.2563 77.4753L71.6456 84.9885L83.4081 69.8679Z" fill="#39485B"/>
<path d="M103.799 67.6624H88.6479V82.8149H103.799V67.6624Z" fill="#39485B"/>
<path d="M80.3176 91.1455H65.165V106.298H80.3176V91.1455Z" fill="#39485B"/>
<path d="M56.8342 44.1814H41.6816V59.3318H56.8342V44.1814Z" fill="#39485B"/>
</svg>
