<svg xmlns="http://www.w3.org/2000/svg" viewBox="0 0 816.05 56.17"><title>資產 1</title><g id="圖層_2" data-name="圖層 2"><g id="圖層_1-2" data-name="圖層 1"><polygon points="454.7 28.09 407.21 56.17 359.74 28.09 407.21 0 454.7 28.09"/><polygon points="583.78 28.09 554.11 45.64 524.42 28.09 554.11 10.53 583.78 28.09"/><polygon points="525.15 28.09 495.47 45.64 465.79 28.09 495.47 10.53 525.15 28.09"/><polygon points="348.64 28.09 318.96 45.64 289.28 28.09 318.96 10.53 348.64 28.09"/><polygon points="290.01 28.09 260.33 45.64 230.65 28.09 260.33 10.53 290.01 28.09"/><path d="M201.07,31.38.81,28.91A.82.82,0,0,1,0,28.08a.84.84,0,0,1,.81-.82L201.07,24.8a3.29,3.29,0,0,1,.08,6.58Z"/><circle cx="218.13" cy="28.09" r="4.93"/><path d="M615,24.8l200.26,2.46a.83.83,0,0,1,0,1.65L615,31.38a3.29,3.29,0,0,1-.08-6.58Z"/><circle cx="594.69" cy="28.09" r="4.93"/></g></g></svg>