<svg width="40" height="40" viewBox="0 0 40 40" fill="none" xmlns="http://www.w3.org/2000/svg">
<path d="M40 19.9925C39.9986 16.1705 38.902 12.429 36.8402 9.21084C34.7784 5.99268 31.8377 3.43269 28.3662 1.83392C24.8947 0.235148 21.0377 -0.335441 17.252 0.1897C13.4663 0.714841 9.91027 2.31372 7.005 4.79705C4.09973 7.28038 1.96685 10.5442 0.858857 14.202C-0.249132 17.8599 -0.285829 21.7586 0.753113 25.4367C1.79205 29.1147 3.86312 32.4181 6.72114 34.9557C9.57915 37.4932 13.1044 39.1588 16.8796 39.7551V25.7698H11.792V19.9925H16.8796V15.5832C16.8796 10.5748 19.8643 7.80483 24.4319 7.80483C25.9471 7.82431 27.4587 7.95657 28.9542 8.20054V13.1186H26.3878C25.9578 13.061 25.5205 13.1008 25.108 13.2351C24.6955 13.3693 24.3185 13.5946 24.0048 13.8942C23.6911 14.1937 23.4487 14.56 23.2956 14.9659C23.1426 15.3718 23.0827 15.8068 23.1204 16.239V19.9925H28.6716L27.7897 25.7698H23.1204V39.7551C27.8259 39.0095 32.111 36.6096 35.2051 32.987C38.2993 29.3644 39.9995 24.7567 40 19.9925Z" fill="#707070"/>
<path d="M27.79 25.7697L28.6719 19.9924H23.1207V16.2389C23.083 15.8068 23.1429 15.3717 23.296 14.9658C23.449 14.5599 23.6914 14.1937 24.0051 13.8941C24.3188 13.5945 24.6958 13.3692 25.1083 13.235C25.5208 13.1007 25.9582 13.0609 26.3881 13.1185H28.9093V8.20045C27.4138 7.95649 25.9022 7.82422 24.387 7.80475C19.8646 7.80475 16.8347 10.5747 16.8347 15.5832V19.9924H11.7471V25.7697H16.8347V39.755C18.9029 40.0716 21.0073 40.0716 23.0755 39.755V25.7697H27.79Z" fill="white"/>
</svg>
