<svg width="120" height="104" viewBox="0 0 120 104" fill="none" xmlns="http://www.w3.org/2000/svg">
<path d="M88.567 0.00687983C76.0172 0.237505 68.5924 7.66016 63.6183 14.9717C62.7127 16.3264 61.353 17.1969 59.9986 17.2318C58.6441 17.1969 57.2869 16.3264 56.3815 14.9717C51.405 7.66016 43.9826 0.237505 31.4304 0.00687983C14.9602 -0.329448 0 11.6558 0 38.112C0 64.1924 22.4252 82.6967 36.2564 92.1207C45.3396 98.3392 56.7605 102.899 56.7605 102.899C57.8137 103.238 59.437 103.539 59.9986 103.539C60.563 103.539 62.186 103.238 63.237 102.899C63.237 102.899 74.6578 98.3389 83.7431 92.1207C97.5748 82.6967 120 64.1921 120 38.112C120 11.6558 105.037 -0.329448 88.567 0.00687983ZM27.3541 64.1471C25.6561 65.356 23.3055 64.9623 22.0943 63.2692C19.0162 58.9595 16.7313 54.0732 15.8182 48.6676C15.334 45.7754 15.078 43.0888 15.078 40.5854C15.078 38.0694 15.3366 35.7317 15.896 33.5769C16.4229 31.5652 18.4847 30.3587 20.4963 30.883C22.5105 31.4098 23.7171 33.4716 23.1902 35.4833C22.8239 36.8804 22.6158 38.5836 22.6158 40.5852C22.6158 42.5769 22.819 44.8545 23.2528 47.413C23.9454 51.5094 25.6835 55.3147 28.2321 58.8889C29.4412 60.5851 29.0475 62.938 27.3541 64.1471ZM32.4588 19.0658C31.2724 19.7832 30.402 20.5407 29.7574 21.3359C28.4428 22.9487 26.07 23.192 24.4521 21.8776C22.8417 20.5632 22.5987 18.1904 23.913 16.5751C25.1747 15.0249 26.7476 13.7103 28.556 12.6167C30.3394 11.5379 32.6573 12.11 33.7308 13.8908C34.8094 15.6718 34.2398 17.9921 32.4588 19.0658Z" fill="white" fill-opacity="0.8"/>
</svg>
