<svg width="40" height="40" viewBox="0 0 40 40" fill="none" xmlns="http://www.w3.org/2000/svg">
<path d="M20 40C31.0457 40 40 31.0457 40 20C40 8.9543 31.0457 0 20 0C8.9543 0 0 8.9543 0 20C0 31.0457 8.9543 40 20 40Z" fill="#707070"/>
<path d="M26.2074 12.4364C25.9341 12.4365 25.667 12.5176 25.4399 12.6697C25.2129 12.8218 25.0361 13.0379 24.932 13.2906C24.828 13.5433 24.8013 13.8212 24.8555 14.089C24.9096 14.3569 25.0421 14.6026 25.2361 14.7951C25.4302 14.9875 25.677 15.118 25.9453 15.1699C26.2136 15.2219 26.4913 15.1929 26.7431 15.0868C26.9949 14.9807 27.2096 14.8021 27.3598 14.5738C27.51 14.3455 27.5889 14.0777 27.5867 13.8045C27.5867 13.6238 27.551 13.445 27.4815 13.2783C27.412 13.1116 27.3103 12.9603 27.182 12.8331C27.0538 12.7059 26.9017 12.6054 26.7344 12.5373C26.5671 12.4692 26.388 12.435 26.2074 12.4364Z" fill="white"/>
<path d="M20.1021 14.1997C18.9589 14.1974 17.8409 14.5343 16.8893 15.1678C15.9377 15.8013 15.1955 16.7028 14.7565 17.7582C14.3175 18.8137 14.2015 19.9756 14.4231 21.0971C14.6448 22.2185 15.1941 23.249 16.0016 24.0581C16.8091 24.8672 17.8385 25.4185 18.9595 25.6424C20.0805 25.8662 21.2427 25.7524 22.299 25.3155C23.3553 24.8786 24.2583 24.1381 24.8936 23.1878C25.5289 22.2375 25.868 21.12 25.868 19.9769C25.868 18.4467 25.2609 16.9789 24.1799 15.8958C23.0989 14.8126 21.6323 14.2027 20.1021 14.1997ZM20.1021 23.6739C19.3677 23.6762 18.6491 23.4603 18.0376 23.0537C17.426 22.6471 16.949 22.068 16.6669 21.39C16.3848 20.7119 16.3104 19.9654 16.4532 19.245C16.5959 18.5246 16.9493 17.8628 17.4686 17.3435C17.9879 16.8242 18.6497 16.4708 19.3701 16.328C20.0905 16.1853 20.837 16.2597 21.5151 16.5418C22.1932 16.8238 22.7722 17.3009 23.1788 17.9125C23.5854 18.524 23.8013 19.2425 23.7991 19.9769C23.7961 20.9565 23.4056 21.8951 22.7129 22.5878C22.0203 23.2805 21.0816 23.671 20.1021 23.6739Z" fill="white"/>
<path d="M24.6801 31.6564H15.3189C13.4518 31.6534 11.662 30.9103 10.3417 29.5901C9.02142 28.2698 8.27838 26.48 8.27539 24.6128V15.2968C8.27539 13.4277 9.01711 11.635 10.3377 10.3123C11.6583 8.9896 13.4498 8.245 15.3189 8.242H24.6801C26.5492 8.245 28.3408 8.9896 29.6614 10.3123C30.9819 11.635 31.7237 13.4277 31.7237 15.2968V24.6581C31.7088 26.5173 30.9605 28.2956 29.6415 29.6061C28.3225 30.9166 26.5395 31.6534 24.6801 31.6564ZM15.3189 10.4579C14.0356 10.4579 12.8048 10.9678 11.8973 11.8752C10.9898 12.7827 10.48 14.0135 10.48 15.2968V24.6581C10.48 25.9414 10.9898 27.1722 11.8973 28.0797C12.8048 28.9871 14.0356 29.4969 15.3189 29.4969H24.6801C25.9635 29.4969 27.1943 28.9871 28.1018 28.0797C29.0092 27.1722 29.519 25.9414 29.519 24.6581V15.2968C29.519 14.0135 29.0092 12.7827 28.1018 11.8752C27.1943 10.9678 25.9635 10.4579 24.6801 10.4579H15.3189Z" fill="white"/>
</svg>
