<svg width="120" height="127" viewBox="0 0 120 127" fill="none" xmlns="http://www.w3.org/2000/svg">
<path opacity="0.8" d="M119.479 8.60105C119.001 7.84966 118.24 7.32008 117.366 7.13223L84.2164 0.0743721C82.44 -0.306276 80.6887 0.811135 80.2786 2.58229L78.5027 10.3281C78.3025 11.1989 78.4589 12.1092 78.9369 12.8628C79.4199 13.6142 80.1809 14.1413 81.0543 14.3266L89.2907 16.0832C81.8547 41.6729 44.855 53.2291 9.98748 49.3696C4.64948 48.7793 1.05339 51.8215 0.19941 55.6592C-1.31327 62.4462 5.76193 72.6464 22.049 75.4886C28.9339 76.6891 43.0935 75.8936 50.7835 72.6561C42.6886 80.3459 25.7574 87.5623 19.2923 89.9458C3.85894 95.6399 6.87934 114.076 33.9887 113.405C47.7141 113.064 64.9332 106.257 79.7564 89.897C77.9513 96.0132 75.7946 102.544 73.2621 109.4C68.1583 123.218 77.7511 135.214 95.3506 119.314C111.355 104.857 117.961 74.6785 109.461 46.7566C107.115 39.05 103.84 29.1402 105.182 19.4669L114.199 21.3892C115.976 21.7674 117.732 20.6524 118.137 18.8788L119.918 11.1328C120.113 10.2649 119.957 9.35243 119.479 8.60105Z" fill="white"/>
</svg>
