<svg width="150" height="99" viewBox="0 0 150 99" fill="none" xmlns="http://www.w3.org/2000/svg">
<path d="M13.8334 77.5818C10.6432 74.3863 8.68107 70.0149 8.67581 65.1617V47.0868H0V65.1617C0.00497248 79.6533 11.7672 91.41 26.2562 91.4205H38.1117V82.7421H26.2562C21.4004 82.7395 17.034 80.7774 13.8334 77.5818Z" fill="white" fill-opacity="0.8"/>
<path d="M25.1351 22.9047C31.4636 22.9047 36.585 17.7836 36.585 11.4522C36.585 5.1316 31.4639 0 25.1351 0C18.8116 0 13.6826 5.1316 13.6826 11.4522C13.6826 17.7833 18.8116 22.9047 25.1351 22.9047Z" fill="white" fill-opacity="0.8"/>
<path d="M52.4059 61.9224H36.3401V38.0083C36.3401 31.8175 31.3281 26.8003 25.135 26.8003C18.9496 26.8003 13.9326 31.8172 13.9326 38.0083V65.2534C13.9326 71.4412 18.9469 76.4584 25.135 76.4584C25.9754 76.4584 45.617 76.4014 45.617 76.4014L46.6916 92.9825C46.7674 96.3784 49.5827 99.0718 52.9786 98.9986C56.3797 98.9232 59.0704 96.1079 58.9923 92.7117L59.6455 69.162C59.6452 65.1595 56.4055 61.9224 52.4059 61.9224Z" fill="white" fill-opacity="0.8"/>
<path d="M141.084 47.0868V65.1617C141.079 70.0149 139.117 74.3866 135.927 77.5818C132.726 80.7774 128.36 82.7395 123.507 82.7421H111.648V91.4205H123.507C137.993 91.41 149.753 79.6533 149.76 65.1617V47.0868H141.084Z" fill="white" fill-opacity="0.8"/>
<path d="M124.625 22.9047C130.948 22.9047 136.077 17.7836 136.077 11.4522C136.077 5.1316 130.948 0 124.625 0C118.296 0 113.175 5.1316 113.175 11.4522C113.175 17.7833 118.296 22.9047 124.625 22.9047Z" fill="white" fill-opacity="0.8"/>
<path d="M135.83 65.2527V38.0076C135.83 31.8169 130.808 26.7997 124.625 26.7997C118.432 26.7997 113.42 31.8166 113.42 38.0076V61.9218H97.3546C93.355 61.9218 90.1152 65.1588 90.1152 69.1611L90.7684 92.7108C90.6903 96.107 93.381 98.9223 96.7822 98.9977C100.178 99.0709 102.994 96.3772 103.069 92.9816L104.144 76.4005C104.144 76.4005 123.785 76.4575 124.626 76.4575C130.813 76.4578 135.83 71.4405 135.83 65.2527Z" fill="white" fill-opacity="0.8"/>
<path d="M107.065 47.1959H44.9424V57.7689H107.065V47.1959Z" fill="white" fill-opacity="0.8"/>
<path d="M78.6126 63.4442H71.3838V89.037H78.6126V63.4442Z" fill="white" fill-opacity="0.8"/>
</svg>
