<svg xmlns="http://www.w3.org/2000/svg" viewBox="0 0 427.59 407.61"><defs><style>.cls-1{fill:#382d78;}.cls-2{fill:#6064a5;}.cls-3{fill:#793a78;}.cls-4{fill:#8ac3a1;}.cls-5{fill:#bbd8e8;}.cls-6{fill:#99c8e3;}.cls-7{fill:#1e2b69;}.cls-8{fill:#39485b;}.cls-9{fill:#fff;}</style></defs><title>資產 1loading_img</title><g id="圖層_2" data-name="圖層 2"><g id="圖層_2-2" data-name="圖層 2"><polygon class="cls-1" points="267.14 265.31 232.77 310.29 219.29 264.59 244.59 182.01 287.42 201.43 267.14 265.31"/><polygon class="cls-2" points="145.11 172.29 193.45 181.67 231.84 311.8 224.25 403.55 202.19 358.65 182.33 233.24 181.68 233.35 182.24 233 145.11 172.29"/><polygon class="cls-3" points="287.76 199.27 244.89 179.83 227.98 82.82 290.24 160.53 287.76 199.27"/><polygon class="cls-4" points="194.66 181.1 226.56 83.92 243.49 181.05 218.61 262.29 194.66 181.1"/><polygon class="cls-5" points="209.86 130.56 177.39 135.81 225.18 83.89 209.86 130.56"/><polygon class="cls-6" points="175.94 137.38 209.4 131.97 193.52 180.33 145.06 170.94 175.94 137.38"/><polygon class="cls-7" points="144.25 173.42 181.04 233.58 200.21 354.63 139.32 230.66 144.25 173.42"/><polygon class="cls-8" points="272.25 348.31 225.54 403.97 233.15 311.98 268.26 266.02 267.74 265.62 268.37 265.82 287.89 204.31 292.68 251.24 272.25 348.31"/><path class="cls-9" d="M143.47,172.48a1.36,1.36,0,0,1-.9-.35,1.33,1.33,0,0,1-.07-1.88L225.67,79.9a1.32,1.32,0,0,1,2,1.79l-83.17,90.36A1.34,1.34,0,0,1,143.47,172.48Z"/><path class="cls-9" d="M138.34,232h-.12a1.32,1.32,0,0,1-1.2-1.44L142.15,171a1.3,1.3,0,0,1,1.44-1.21,1.32,1.32,0,0,1,1.2,1.44l-5.13,59.55A1.33,1.33,0,0,1,138.34,232Z"/><path class="cls-9" d="M224.59,407.61a1.32,1.32,0,0,1-1.19-.74L137.15,231.29a1.33,1.33,0,0,1,2.38-1.17L225.78,405.7a1.34,1.34,0,0,1-.61,1.78A1.36,1.36,0,0,1,224.59,407.61Z"/><path class="cls-9" d="M224.59,407.61a1.29,1.29,0,0,1-.85-.31,1.32,1.32,0,0,1-.17-1.87l48.26-57.5a1.33,1.33,0,1,1,2,1.71l-48.26,57.5A1.31,1.31,0,0,1,224.59,407.61Z"/><path class="cls-9" d="M272.85,350.11l-.28,0a1.33,1.33,0,0,1-1-1.57L292.09,251a1.32,1.32,0,1,1,2.59.55l-20.54,97.54A1.32,1.32,0,0,1,272.85,350.11Z"/><path class="cls-9" d="M293.38,252.57a1.33,1.33,0,0,1-1.32-1.19l-5.13-50.32a1.33,1.33,0,0,1,2.64-.27l5.13,50.32a1.31,1.31,0,0,1-1.18,1.45Z"/><path class="cls-9" d="M288.25,202.26h-.09a1.31,1.31,0,0,1-1.23-1.41l2.56-40a1.31,1.31,0,0,1,1.41-1.24,1.33,1.33,0,0,1,1.24,1.41l-2.57,40A1.33,1.33,0,0,1,288.25,202.26Z"/><path class="cls-9" d="M290.82,162.21a1.32,1.32,0,0,1-1-.5L225.61,81.62a1.32,1.32,0,0,1,.2-1.86,1.34,1.34,0,0,1,1.87.2l64.17,80.09a1.32,1.32,0,0,1-.21,1.87A1.27,1.27,0,0,1,290.82,162.21Z"/><path class="cls-9" d="M193.78,182.23a1.51,1.51,0,0,1-.41-.06,1.34,1.34,0,0,1-.85-1.68L225.38,80.38a1.35,1.35,0,0,1,1.68-.85,1.33,1.33,0,0,1,.84,1.68L195,181.32A1.32,1.32,0,0,1,193.78,182.23Z"/><path class="cls-9" d="M193.79,182.23a1.14,1.14,0,0,1-.26,0l-50.31-9.76a1.32,1.32,0,0,1,.5-2.6L194,179.6a1.33,1.33,0,0,1-.25,2.63Z"/><path class="cls-9" d="M175.38,137.81a1.33,1.33,0,0,1-.21-2.64L210,129.54a1.33,1.33,0,1,1,.42,2.62l-34.82,5.63Z"/><path class="cls-9" d="M232.41,313.15a1.34,1.34,0,0,1-1.28-.95L192.51,181.28a1.33,1.33,0,1,1,2.55-.75l38.62,130.92a1.33,1.33,0,0,1-.9,1.64A1.19,1.19,0,0,1,232.41,313.15Z"/><path class="cls-9" d="M224.59,407.61h-.11a1.32,1.32,0,0,1-1.21-1.43l7.81-94.47a1.33,1.33,0,0,1,2.65.22l-7.82,94.47A1.33,1.33,0,0,1,224.59,407.61Z"/><path class="cls-9" d="M267.71,266.94a1.39,1.39,0,0,1-.4-.06,1.32,1.32,0,0,1-.86-1.66L287,200.53a1.33,1.33,0,1,1,2.53.8L269,266A1.33,1.33,0,0,1,267.71,266.94Z"/><path class="cls-9" d="M232.4,313.15a1.32,1.32,0,0,1-1.05-2.13l35.31-46.21a1.33,1.33,0,0,1,2.11,1.61l-35.31,46.21A1.33,1.33,0,0,1,232.4,313.15Z"/><path class="cls-9" d="M181.46,234.6a1.35,1.35,0,0,1-1.13-.63l-38-62.13a1.32,1.32,0,0,1,2.26-1.38l38,62.12a1.32,1.32,0,0,1-.45,1.82A1.23,1.23,0,0,1,181.46,234.6Z"/><path class="cls-9" d="M201.38,360.38a1.31,1.31,0,0,1-1.3-1.12L180.15,233.48a1.34,1.34,0,0,1,1.11-1.52,1.32,1.32,0,0,1,1.51,1.11L202.7,358.85a1.32,1.32,0,0,1-1.11,1.51A.75.75,0,0,1,201.38,360.38Z"/><path class="cls-9" d="M244.1,182.23a1.32,1.32,0,0,1-1.31-1.1L225.34,81a1.31,1.31,0,0,1,1.07-1.53A1.33,1.33,0,0,1,228,80.57L245.4,180.68a1.31,1.31,0,0,1-1.07,1.53A.93.93,0,0,1,244.1,182.23Z"/><path class="cls-9" d="M218.47,265.9a1.31,1.31,0,0,1-.39,0,1.34,1.34,0,0,1-.88-1.66l25.63-83.67a1.33,1.33,0,1,1,2.54.78L219.74,265A1.33,1.33,0,0,1,218.47,265.9Z"/><path class="cls-9" d="M288.25,202.26a1.37,1.37,0,0,1-.55-.12l-44.15-20a1.32,1.32,0,1,1,1.1-2.41l44.15,20a1.33,1.33,0,0,1-.55,2.54Z"/><polygon class="cls-9" points="403.74 167.62 384.18 165.47 403.51 163.09 405.88 143.76 408.35 163.32 427.59 165.47 408.58 168.16 405.88 187.17 403.74 167.62"/><polygon class="cls-9" points="73.46 307.25 53.9 305.11 73.24 302.73 75.61 283.4 78.08 302.96 97.32 305.11 78.31 307.8 75.61 326.81 73.46 307.25"/><polygon class="cls-9" points="320.15 18.79 304.74 17.1 319.97 15.23 321.84 0 323.78 15.41 338.94 17.1 323.96 19.22 321.84 34.2 320.15 18.79"/><polygon class="cls-9" points="351.99 332.54 339.94 331.22 351.85 329.76 353.31 317.85 354.83 329.9 366.68 331.22 354.97 332.88 353.31 344.59 351.99 332.54"/><polygon class="cls-9" points="11.16 191.94 0 190.71 11.03 189.35 12.39 178.32 13.79 189.49 24.77 190.71 13.93 192.25 12.39 203.1 11.16 191.94"/></g></g></svg>