<svg width="122" height="122" viewBox="0 0 122 122" fill="none" xmlns="http://www.w3.org/2000/svg">
<path d="M107.201 20.9576C106.303 18.8354 104.81 17.0407 102.93 15.7675C101.05 14.498 98.7602 13.7495 96.3252 13.7495H86.161V11.996H71.4286C71.4955 11.5195 71.533 11.0279 71.533 10.5327C71.5327 4.72464 66.8081 0 61 0C55.1919 0 50.4672 4.72464 50.4672 10.5327C50.4672 11.0279 50.5044 11.5195 50.5716 11.996H35.8391V13.7495H25.6748C24.0514 13.7495 22.4916 14.081 21.0805 14.6803C18.9583 15.5776 17.16 17.0705 15.8867 18.9507C14.6171 20.8346 13.8687 23.1207 13.8687 25.5557V110.198C13.8687 111.813 14.2001 113.377 14.7994 114.792C15.6967 116.914 17.1896 118.709 19.0699 119.982C20.9537 121.255 23.2398 122 25.6748 122H96.3252C97.9448 122 99.5084 121.672 100.919 121.069C103.045 120.176 104.84 118.679 106.113 116.799C107.383 114.919 108.131 112.629 108.131 110.198V25.5557C108.131 23.9325 107.804 22.3725 107.201 20.9576ZM61 6.6235C63.1557 6.6235 64.9092 8.37702 64.9092 10.5327C64.9092 11.0503 64.8048 11.5416 64.6226 11.996H57.381C57.1949 11.5419 57.0905 11.0503 57.0905 10.5327C57.0907 8.37702 58.848 6.6235 61 6.6235ZM101.109 110.198C101.109 110.868 100.975 111.486 100.733 112.056C100.376 112.908 99.7652 113.645 98.9984 114.167C98.2314 114.68 97.3305 114.978 96.3252 114.978H25.6748C25.0045 114.978 24.3828 114.844 23.8131 114.606C22.9567 114.244 22.2233 113.63 21.7057 112.867C21.192 112.1 20.8941 111.199 20.8903 110.197V25.5557C20.8903 24.8854 21.0245 24.2637 21.2663 23.694C21.6276 22.8376 22.238 22.1003 23.0013 21.5866C23.7683 21.0729 24.6692 20.775 25.6745 20.7712H35.8387V22.2345C35.8387 24.9821 38.0652 27.2086 40.8166 27.2086H81.1867C83.9343 27.2086 86.1608 24.9821 86.1608 22.2345V20.7712H96.3249C96.9952 20.7712 97.6169 20.9054 98.1866 21.1472C99.0392 21.5046 99.7764 22.1154 100.294 22.8821C100.812 23.6489 101.109 24.5501 101.109 25.5554V110.198Z" fill="#39485B"/>
<path d="M44.741 40.668H37.2053V48.2036H44.741V40.668Z" fill="#39485B"/>
<path d="M84.7982 40.668H53.7361V48.2036H84.7982V40.668Z" fill="#39485B"/>
<path d="M44.741 62.936H37.2053V70.4717H44.741V62.936Z" fill="#39485B"/>
<path d="M84.7982 62.936H53.7361V70.4717H84.7982V62.936Z" fill="#39485B"/>
<path d="M44.741 85.208H37.2053V92.7437H44.741V85.208Z" fill="#39485B"/>
<path d="M84.7982 85.208H53.7361V92.7437H84.7982V85.208Z" fill="#39485B"/>
</svg>
