<svg width="122" height="122" viewBox="0 0 122 122" fill="none" xmlns="http://www.w3.org/2000/svg">
<path d="M52.7421 36.4309C52.9878 37.3655 53.3529 38.1771 53.8442 38.8474C54.3432 39.5176 54.9462 40.0538 55.6685 40.441C56.3907 40.8208 57.2323 41.0143 58.1964 41.0143C59.8048 41.0143 61.0334 40.5303 61.875 39.5548C62.7202 38.5793 63.2191 37.1422 63.3902 35.2434L63.6061 32.6818C63.6993 31.7659 63.919 31.118 64.254 30.7308C64.5928 30.3474 65.0732 30.1575 65.6987 30.1575C66.3949 30.1575 66.9609 30.4255 67.3926 30.9691C67.8282 31.5052 68.0441 32.3466 68.0441 33.471C68.0441 34.3386 67.9397 35.1614 67.735 35.9432C67.5339 36.7288 66.886 37.6336 66.886 37.6336C66.7781 37.842 66.8227 38.0953 66.9866 38.259L68.5392 39.7893C68.6658 39.9046 68.8333 39.9606 69.001 39.9344C69.1685 39.912 69.3139 39.8079 69.392 39.6589C69.392 39.6589 70.3304 38.4601 70.643 37.3133C70.8255 36.643 70.9483 35.9172 71.0228 35.1614H73.3275V31.9036H70.9783C70.9187 31.535 70.8479 31.1664 70.7474 30.8201C70.5091 29.9935 70.1517 29.2639 69.6677 28.6384C69.1874 28.0129 68.5955 27.5214 67.903 27.1566C67.203 26.7991 66.4064 26.6166 65.5202 26.6166C63.908 26.6166 62.7054 27.082 61.9088 28.0203C61.1194 28.9623 60.6354 30.299 60.4679 32.0266L60.2185 34.9529C60.1141 35.8426 59.8908 36.4719 59.5296 36.8479C59.1684 37.2204 58.677 37.4027 58.0477 37.4027C57.1801 37.4027 56.5473 37.0302 56.1377 36.2708C55.728 35.5114 55.5269 34.5545 55.5269 33.4002C55.5269 32.4843 55.6499 31.5683 55.8994 30.6414C56.1527 29.7181 57.2173 28.4969 57.2173 28.4969C57.3438 28.281 57.314 28.0091 57.1353 27.8342L55.5045 26.1999C55.3854 26.0845 55.2253 26.0324 55.0578 26.0471C54.8976 26.0695 54.7525 26.1663 54.6667 26.3078C54.6667 26.3078 53.2556 27.9796 52.9056 29.2527C52.6785 30.0867 52.5332 30.9729 52.455 31.9036H49.7817V35.1614H52.5108C52.5708 35.5932 52.6416 36.0252 52.7421 36.4309Z" fill="#39485B"/>
<path d="M104.527 110.562H69.5781V122H104.527V110.562Z" fill="#39485B"/>
<path d="M99.6166 0H22.3837C14.2299 0 7.625 5.97562 7.625 13.3438C7.625 20.7119 14.2299 26.6875 22.3837 26.6875H28.5938V6.69427H32.7301V89.0986H61.9605L62.9882 93.9424C63.2489 95.171 63.8744 96.2954 64.7827 97.1592L64.8795 97.2559L76.7451 105.76L76.749 105.752C77.8808 106.743 79.3291 107.309 80.8407 107.309H97.6619C101.102 107.309 103.891 104.523 103.891 101.083V61.2681C103.891 57.5078 102.722 53.8442 100.548 50.7799L89.9181 35.8018V6.69427H93.4062V26.6875H99.6166C107.77 26.6875 114.375 20.7119 114.375 13.3438C114.375 5.97562 107.77 0 99.6166 0ZM80.6918 6.69427H86.1053V30.433L86.0979 30.4218V61.3648C86.0979 61.9829 85.8635 62.5786 85.4353 63.029L80.692 68.0367V6.69427H80.6918ZM61.4022 18.1318C69.824 18.1318 76.6522 24.96 76.6522 33.3818C76.6522 41.8036 69.824 48.6318 61.4022 48.6318C52.9804 48.6318 46.1522 41.8036 46.1522 33.3818C46.1522 24.96 52.9804 18.1318 61.4022 18.1318ZM36.5426 85.2861V6.69427H41.9561V69.9022C46.8185 71.0824 50.59 75.0105 51.5431 79.951H60.0281L61.1561 85.2863H36.5426V85.2861ZM97.4384 52.9878C99.1548 55.4078 100.078 58.2969 100.078 61.2681V101.083C100.074 102.416 98.9947 103.496 97.6617 103.496H80.8405C80.2188 103.496 79.6231 103.258 79.1687 102.83L79.0755 102.736L67.3738 94.3517C67.0461 94.0241 66.8153 93.6109 66.7185 93.1565L60.6571 64.507L60.6049 64.0081C60.6049 63.1517 61.0591 62.3401 61.8187 61.9081L61.6922 61.9827L64.0676 60.6238C64.4363 60.4114 64.8494 60.3073 65.2664 60.3073C65.4935 60.3073 65.7244 60.3371 65.9477 60.4041L65.8769 60.3817L65.9515 60.4041C66.5844 60.5902 67.1093 61.0295 67.4148 61.614L72.0798 70.6351C73.007 72.4261 74.7419 73.6585 76.7413 73.9413C77.0318 73.9785 77.3223 74.0009 77.6125 74.0009C79.3102 74.0009 80.9484 73.3084 82.1325 72.0574L88.1266 65.7318L88.2048 65.6462C89.2995 64.492 89.91 62.9582 89.91 61.3646V42.3802L97.4384 52.9878Z" fill="#39485B"/>
</svg>
